<svg width="98" height="25" viewBox="0 0 98 25" fill="none" xmlns="http://www.w3.org/2000/svg">
<path fill-rule="evenodd" clip-rule="evenodd" d="M12.4108 0.162476L17.1899 5.82823L18.3046 16.2979L9.8692 25.1625L0.0546875 16.2687L4.9965 3.69466L12.4108 0.162476ZM5.42508 4.65998L9.36698 8.8242L5.3357 14.6713L1.11074 15.6375L5.42508 4.65998ZM1.28837 16.3704L8.78045 23.1596L5.34438 15.4429L1.28837 16.3704ZM6.16719 15.4419L9.96459 23.9701L17.1045 16.467L6.16719 15.4419ZM17.4335 15.2154L16.5074 6.51859L10.5459 8.91329L17.4335 15.2154ZM9.94676 8.34156L16.2048 5.82778L12.2106 1.09269L5.92126 4.08901L9.94676 8.34156ZM9.91427 9.35604L16.8299 15.6838L6.23618 14.6909L9.91427 9.35604Z" fill="#0E1011"/>
<path d="M48.2515 19.81C46.134 19.81 44.3465 19.1225 42.9165 17.72C41.4865 16.3175 40.7715 14.5575 40.7715 12.4675C40.7715 10.3775 41.4865 8.645 42.9165 7.2425C44.3465 5.84 46.134 5.125 48.2515 5.125C50.039 5.125 51.579 5.6475 52.9265 6.6925C54.274 7.71 55.1265 9.0575 55.484 10.68H52.9815C52.239 8.7275 50.4515 7.4075 48.2515 7.4075C46.794 7.4075 45.6115 7.9025 44.649 8.865C43.6865 9.8275 43.219 11.01 43.219 12.4675C43.219 13.925 43.6865 15.135 44.649 16.0975C45.6115 17.06 46.794 17.5275 48.2515 17.5275C50.4515 17.5275 52.239 16.2075 52.9815 14.255H55.484C55.1265 15.8775 54.274 17.225 52.9265 18.27C51.579 19.2875 50.039 19.81 48.2515 19.81Z" fill="#0E1011"/>
<path d="M78.8397 6.5825C77.8772 5.62 76.6122 5.125 75.0447 5.125C72.7072 5.125 71.0022 6.0875 69.9847 8.04C69.1872 6.1975 67.4272 5.125 65.1997 5.125C63.1647 5.125 61.6247 5.895 60.6072 7.4625V5.455H58.2422V19.48H60.6072V11.1475C60.6072 8.92 62.1472 7.4075 64.4572 7.4075C66.6572 7.4075 68.0872 8.865 68.0872 11.0925V19.48H70.4522V11.1475C70.4522 8.92 71.9922 7.4075 74.3022 7.4075C76.5022 7.4075 77.9322 8.865 77.9322 11.0925V19.48H80.2972V10.4325C80.2972 8.81 79.8022 7.545 78.8397 6.5825Z" fill="#0E1011"/>
<path fill-rule="evenodd" clip-rule="evenodd" d="M97.7783 13.375V13.3748C97.8035 13.0489 97.8269 12.7465 97.8269 12.4675C97.8269 10.3775 97.1119 8.645 95.6819 7.2425C94.2794 5.84 92.4919 5.125 90.3744 5.125C88.2569 5.125 86.4694 5.84 85.0394 7.2425C83.6369 8.645 82.9219 10.3775 82.9219 12.4675C82.9219 14.5575 83.6369 16.3175 85.0394 17.72C86.4694 19.1225 88.2569 19.81 90.3744 19.81C93.7844 19.81 96.5344 17.885 97.5519 14.9975H94.9394C94.1969 16.565 92.4644 17.6375 90.3744 17.6375C89.1094 17.6375 88.0094 17.2525 87.1019 16.4825C86.1944 15.7125 85.6444 14.695 85.4519 13.4575H97.7719L97.7783 13.375ZM95.2969 11.34H85.4794C85.9469 8.92 87.8719 7.2975 90.3744 7.2975C92.8769 7.2975 94.8569 8.9475 95.2969 11.34Z" fill="#0E1011"/>
<path fill-rule="evenodd" clip-rule="evenodd" d="M38.729 5.45502H28.059V7.73753H36.364V10.4875H32.184C30.7265 10.4875 29.5165 10.9275 28.554 11.835C27.5915 12.7151 27.124 13.8151 27.124 15.1351C27.124 16.4826 27.5915 17.5826 28.554 18.4901C29.5165 19.3701 30.7265 19.8101 32.184 19.8101C34.0815 19.8101 35.7315 18.9851 36.6115 17.6651V19.4801H38.729V5.45502ZM36.364 14.8876C36.364 16.5376 34.7965 17.6651 32.4865 17.6651C30.809 17.6651 29.5715 16.5926 29.5715 15.1351C29.5715 13.7051 30.809 12.6326 32.4865 12.6326H36.364V14.8876Z" fill="#0E1011"/>
</svg>
