<svg width="113" height="25" viewBox="0 0 113 25" fill="none" xmlns="http://www.w3.org/2000/svg">
<path d="M10.4557 24.9375H8.54492V-0.0625L10.4557 1.52986V24.9375Z" fill="#0E1011"/>
<path d="M4.4043 24.9375H6.31512V4.78308L4.4043 6.37543V24.9375Z" fill="#0E1011"/>
<path d="M2.33466 24.9375H0.423828V11.1525L2.33466 9.56018V24.9375Z" fill="#0E1011"/>
<path d="M18.5769 24.9375H16.666V9.56018L18.5769 11.1525V24.9375Z" fill="#0E1011"/>
<path d="M12.6855 24.9375H14.5963V6.37543L12.6855 4.78308V24.9375Z" fill="#0E1011"/>
<path fill-rule="evenodd" clip-rule="evenodd" d="M39.3671 17.8918V17.0323H37.2425V17.8537C37.2425 19.6872 37.8359 21.3251 40.3923 21.3251C42.9487 21.3251 43.6292 19.4772 43.6292 17.5051C43.6292 15.1653 43.0011 14.2724 40.9506 12.7301C39.7466 11.8371 39.5634 11.2976 39.5634 10.376C39.5634 9.45441 39.7249 8.84799 40.4359 8.84799C41.147 8.84799 41.3084 9.44964 41.3084 10.4046V11.0875H43.4024V10.3426C43.4024 8.83366 42.9575 7.00006 40.4839 7.00006C38.0104 7.00006 37.465 8.84799 37.465 10.6768C37.465 12.7348 38.2546 13.4988 39.7249 14.6734C41.195 15.8482 41.5135 16.3113 41.5135 17.8059C41.5135 18.7083 41.2779 19.5011 40.4751 19.5011C39.6725 19.5011 39.3671 18.9232 39.3671 17.8918ZM27.017 21.1244L27.4925 17.4094H29.6084L30.1493 21.1244H32.3568L30.0664 7.22439H27.0824L24.875 21.1244H27.017ZM28.5831 9.2633C28.7401 10.8343 29.0369 13.0738 29.3509 15.4374H27.7717C27.814 15.1167 27.8597 14.7736 27.907 14.4184L27.9071 14.4181C28.163 12.4993 28.4655 10.2303 28.5134 9.2633H28.5831ZM55.4124 21.1244H53.7634C53.7034 20.7808 53.6655 20.4329 53.6499 20.0834C53.2704 21.0098 52.472 21.3298 51.5908 21.3298C49.5753 21.3298 48.9253 19.8496 48.9253 17.5098V10.9632C48.9253 8.69511 49.7978 7.02386 52.1754 7.02386C55.0503 7.02386 55.3556 9.16785 55.3556 10.6624V11.1113H53.2311V10.5574C53.2311 9.82202 53.1264 8.97685 52.1623 8.97685C51.3901 8.97685 51.0629 9.51641 51.0629 10.629V17.7389C51.0629 18.8516 51.3814 19.4293 52.1449 19.4293C53.061 19.4293 53.2835 18.6558 53.2835 17.2233V15.1939H52.0969V13.3507H55.4124V21.1244ZM62.7854 21.1244L63.2653 17.4094H65.3636L65.9045 21.1244H68.1032L65.8129 7.22436H62.829L60.6478 21.1244H62.7854ZM64.3559 9.26329C64.5129 10.8343 64.8095 13.0737 65.1236 15.4373H63.527C63.5693 15.1166 63.615 14.7733 63.6624 14.4181V14.4177L63.6625 14.4174C63.9182 12.4987 64.2207 10.2301 64.2686 9.26329H64.3559ZM75.3272 14.9121V21.1196H73.2159V7.22436H76.1387C78.224 7.22436 79.4542 8.07431 79.4542 10.5669V11.0969C79.4542 13.2313 78.5817 13.7757 78.0625 13.9953C78.8609 14.3773 79.3146 14.9503 79.3146 16.8603C79.2798 18.2847 79.322 19.7102 79.4411 21.1292H77.3995C77.245 20.4077 77.2533 18.6039 77.2584 17.4762C77.2591 17.2978 77.2599 17.1364 77.2599 16.9988C77.2599 15.3037 77.0417 14.9169 75.8159 14.9169L75.3272 14.9121ZM75.3272 13.1406H75.8115C76.9282 13.1406 77.3384 12.7108 77.3384 11.2019V10.7244C77.3384 9.65006 77.1202 8.99589 75.9249 8.99589H75.3272V13.1406ZM88.053 7.22436H85.1257V21.1244H88.053C91.3074 21.1244 91.6651 18.7894 91.6651 16.6646V11.3356C91.6651 8.75236 90.9584 7.22436 88.053 7.22436ZM87.9352 19.3003H87.259V9.06751H87.9221C89.3181 9.06751 89.5362 9.88881 89.5362 11.1637V16.9558C89.5362 18.3931 89.3269 19.3003 87.9352 19.3003ZM99.4737 7.22436V21.1244H97.3623V7.22436H99.4737ZM106.794 21.1244L107.274 17.4094H109.381L109.918 21.1244H112.125L109.835 7.22436H106.851L104.643 21.1244H106.794ZM109.018 14.5981C109.054 14.8754 109.091 15.1556 109.128 15.4373H107.54C107.566 15.2409 107.594 15.0361 107.622 14.8252C107.89 12.8317 108.23 10.2996 108.282 9.26329H108.36C108.498 10.6469 108.749 12.5492 109.018 14.5981Z" fill="#0E1011"/>
</svg>
