<svg width="57" height="14" viewBox="0 0 57 14" fill="none" xmlns="http://www.w3.org/2000/svg">
<path d="M6.858 13.716C5.622 13.716 4.554 13.446 3.654 12.906C2.766 12.354 2.076 11.592 1.584 10.62C1.092 9.636 0.846 8.496 0.846 7.2C0.846 5.916 1.092 4.788 1.584 3.816C2.076 2.832 2.766 2.064 3.654 1.512C4.554 0.96 5.622 0.684 6.858 0.684C8.298 0.684 9.468 1.032 10.368 1.728C11.28 2.412 11.862 3.372 12.114 4.608H10.44C10.248 3.828 9.852 3.204 9.252 2.736C8.664 2.256 7.866 2.016 6.858 2.016C5.958 2.016 5.172 2.226 4.5 2.646C3.828 3.054 3.306 3.648 2.934 4.428C2.574 5.196 2.394 6.12 2.394 7.2C2.394 8.28 2.574 9.21 2.934 9.99C3.306 10.758 3.828 11.352 4.5 11.772C5.172 12.18 5.958 12.384 6.858 12.384C7.866 12.384 8.664 12.156 9.252 11.7C9.852 11.232 10.248 10.614 10.44 9.846H12.114C11.862 11.058 11.28 12.006 10.368 12.69C9.468 13.374 8.298 13.716 6.858 13.716ZM14.1971 13.5V0.539999H15.7091V13.5H14.1971ZM19.1053 2.592C18.8053 2.592 18.5533 2.496 18.3493 2.304C18.1573 2.1 18.0613 1.848 18.0613 1.548C18.0613 1.26 18.1573 1.02 18.3493 0.827999C18.5533 0.635999 18.8053 0.539999 19.1053 0.539999C19.3933 0.539999 19.6393 0.635999 19.8433 0.827999C20.0473 1.02 20.1493 1.26 20.1493 1.548C20.1493 1.848 20.0473 2.1 19.8433 2.304C19.6393 2.496 19.3933 2.592 19.1053 2.592ZM18.3493 13.5V4.572H19.8613V13.5H18.3493ZM26.508 13.716C25.656 13.716 24.9 13.524 24.24 13.14C23.58 12.744 23.058 12.198 22.674 11.502C22.302 10.806 22.116 9.984 22.116 9.036C22.116 8.1 22.302 7.284 22.674 6.588C23.046 5.88 23.562 5.334 24.222 4.95C24.894 4.554 25.668 4.356 26.544 4.356C27.408 4.356 28.152 4.554 28.776 4.95C29.412 5.334 29.898 5.844 30.234 6.48C30.57 7.116 30.738 7.8 30.738 8.532C30.738 8.664 30.732 8.796 30.72 8.928C30.72 9.06 30.72 9.21 30.72 9.378H23.61C23.646 10.062 23.802 10.632 24.078 11.088C24.366 11.532 24.72 11.868 25.14 12.096C25.572 12.324 26.028 12.438 26.508 12.438C27.132 12.438 27.654 12.294 28.074 12.006C28.494 11.718 28.8 11.328 28.992 10.836H30.486C30.246 11.664 29.784 12.354 29.1 12.906C28.428 13.446 27.564 13.716 26.508 13.716ZM26.508 5.634C25.788 5.634 25.146 5.856 24.582 6.3C24.03 6.732 23.712 7.368 23.628 8.208H29.244C29.208 7.404 28.932 6.774 28.416 6.318C27.9 5.862 27.264 5.634 26.508 5.634ZM32.742 13.5V4.572H34.11L34.2 6.174C34.488 5.61 34.902 5.166 35.442 4.842C35.982 4.518 36.594 4.356 37.278 4.356C38.334 4.356 39.174 4.68 39.798 5.328C40.434 5.964 40.752 6.948 40.752 8.28V13.5H39.24V8.442C39.24 6.582 38.472 5.652 36.936 5.652C36.168 5.652 35.526 5.934 35.01 6.498C34.506 7.05 34.254 7.842 34.254 8.874V13.5H32.742ZM46.5708 13.5C45.7548 13.5 45.1128 13.302 44.6448 12.906C44.1768 12.51 43.9428 11.796 43.9428 10.764V5.85H42.3948V4.572H43.9428L44.1408 2.43H45.4548V4.572H48.0828V5.85H45.4548V10.764C45.4548 11.328 45.5688 11.712 45.7968 11.916C46.0248 12.108 46.4268 12.204 47.0028 12.204H47.9388V13.5H46.5708ZM53.4237 13.716C52.3557 13.716 51.4677 13.446 50.7597 12.906C50.0517 12.366 49.6377 11.634 49.5177 10.71H51.0657C51.1617 11.178 51.4077 11.586 51.8037 11.934C52.2117 12.27 52.7577 12.438 53.4417 12.438C54.0777 12.438 54.5457 12.306 54.8457 12.042C55.1457 11.766 55.2957 11.442 55.2957 11.07C55.2957 10.53 55.0977 10.17 54.7017 9.99C54.3177 9.81 53.7717 9.648 53.0637 9.504C52.5837 9.408 52.1037 9.27 51.6237 9.09C51.1437 8.91 50.7417 8.658 50.4177 8.334C50.0937 7.998 49.9317 7.56 49.9317 7.02C49.9317 6.24 50.2197 5.604 50.7957 5.112C51.3837 4.608 52.1757 4.356 53.1717 4.356C54.1197 4.356 54.8937 4.596 55.4937 5.076C56.1057 5.544 56.4597 6.216 56.5557 7.092H55.0617C55.0017 6.636 54.8037 6.282 54.4677 6.03C54.1437 5.766 53.7057 5.634 53.1537 5.634C52.6137 5.634 52.1937 5.748 51.8937 5.976C51.6057 6.204 51.4617 6.504 51.4617 6.876C51.4617 7.236 51.6477 7.518 52.0197 7.722C52.4037 7.926 52.9197 8.1 53.5677 8.244C54.1197 8.364 54.6417 8.514 55.1337 8.694C55.6377 8.862 56.0457 9.12 56.3577 9.468C56.6817 9.804 56.8437 10.296 56.8437 10.944C56.8557 11.748 56.5497 12.414 55.9257 12.942C55.3137 13.458 54.4797 13.716 53.4237 13.716Z" fill="#0E1011"/>
</svg>
