<svg width="107" height="25" viewBox="0 0 107 25" fill="none" xmlns="http://www.w3.org/2000/svg">
<path d="M12.9425 0C5.47875 0 0.375 4.75 0.375 12.5675C0.375 20.0312 5.47875 25 12.9425 25C20.4062 25 25.375 20.0312 25.375 12.5675C25.375 4.75 20.4062 0 12.9425 0ZM20.3662 19.9912C19.8797 20.4757 19.3371 20.9004 18.75 21.2563V11L16.5 9.75V22.25C15.6858 22.4926 14.8475 22.6456 14 22.7062V6.26875L11.75 5.01875V22.6987C10.9453 22.6324 10.1496 22.484 9.375 22.2563V10.5L7.125 11.75V21.2738C4.28625 19.5825 2.625 16.5238 2.625 12.5625C2.625 9.38375 3.59625 6.7525 5.435 4.9525C7.2425 3.18625 9.83875 2.25 12.9425 2.25C16.0463 2.25 18.5987 3.1825 20.375 4.945C22.1763 6.7375 23.125 9.37375 23.125 12.57C23.125 15.625 22.1712 18.1875 20.3662 19.9912Z" fill="#0E1011"/>
<path d="M78.6192 7H81.1167L81.0942 18.25H78.5967L78.6192 7Z" fill="#0E1011"/>
<path d="M79.8561 4.86248C79.4511 4.86248 79.0986 4.71998 78.7986 4.43498C78.5136 4.13498 78.3711 3.78248 78.3711 3.37748C78.3711 2.97248 78.5136 2.62748 78.7986 2.34248C79.0986 2.05748 79.4511 1.91498 79.8561 1.91498C80.2611 1.91498 80.6061 2.05748 80.8911 2.34248C81.1911 2.62748 81.3411 2.97248 81.3411 3.37748C81.3411 3.78248 81.1911 4.13498 80.8911 4.43498C80.6061 4.71998 80.2611 4.86248 79.8561 4.86248Z" fill="#0E1011"/>
<path d="M83.6133 18.25H86.1333V12.3775C86.1333 11.3125 86.3658 10.495 86.8308 9.92504C87.2958 9.35504 87.9483 9.07754 88.7883 9.09254C89.2833 9.09254 89.7108 9.19004 90.0708 9.38504C90.4458 9.58004 90.7308 9.92504 90.9258 10.42C91.1358 10.9 91.2408 11.59 91.2408 12.49V18.25H93.7608V11.815C93.7608 10.09 93.3858 8.81504 92.6358 7.99004C91.9008 7.15004 90.8508 6.73004 89.4858 6.73004C88.6008 6.73004 87.8358 6.95504 87.1908 7.40504C86.7579 7.69698 86.3927 8.08352 86.0949 8.56463L85.9758 7.00004H83.6133V18.25Z" fill="#0E1011"/>
<path fill-rule="evenodd" clip-rule="evenodd" d="M97.9569 17.7775C98.8119 18.2725 99.7869 18.52 100.882 18.52C101.737 18.52 102.494 18.4 103.154 18.16C103.829 17.92 104.407 17.575 104.887 17.125C105.382 16.675 105.787 16.15 106.102 15.55L103.784 14.56C103.544 15.04 103.207 15.4375 102.772 15.7525C102.337 16.0525 101.782 16.2025 101.107 16.2025C100.492 16.2025 99.9294 16.0675 99.4194 15.7975C98.9244 15.5125 98.5269 15.1075 98.2269 14.5825C98.0143 14.1908 97.881 13.7408 97.827 13.2325H106.327C106.327 11.8825 106.087 10.72 105.607 9.74498C105.127 8.76998 104.482 8.02748 103.672 7.51748C102.877 6.99248 101.977 6.72998 100.972 6.72998C99.8619 6.72998 98.8719 6.98498 98.0019 7.49498C97.1469 7.98998 96.4719 8.67998 95.9769 9.56498C95.4819 10.45 95.2344 11.47 95.2344 12.625C95.2344 13.78 95.4744 14.8 95.9544 15.685C96.4494 16.57 97.1169 17.2675 97.9569 17.7775ZM103.556 11.23C103.517 11.0879 103.473 10.9529 103.424 10.825C103.199 10.195 102.869 9.72998 102.434 9.42998C102.014 9.11498 101.497 8.95748 100.882 8.95748C100.237 8.95748 99.6819 9.09998 99.2169 9.38498C98.7519 9.66998 98.3994 10.09 98.1594 10.645C98.0798 10.8243 98.0133 11.0193 97.96 11.23H103.556Z" fill="#0E1011"/>
<path d="M73.5713 2.5V18.25H76.0913V2.5H73.5713Z" fill="#0E1011"/>
<path fill-rule="evenodd" clip-rule="evenodd" d="M68.8502 18.25L68.7599 16.5705C68.4488 17.0646 68.0664 17.4745 67.6127 17.8C66.9377 18.28 66.1277 18.52 65.1827 18.52C64.1627 18.52 63.2702 18.28 62.5052 17.8C61.7552 17.305 61.1627 16.615 60.7277 15.73C60.3077 14.845 60.0977 13.81 60.0977 12.625C60.0977 11.425 60.3077 10.39 60.7277 9.52C61.1627 8.635 61.7552 7.9525 62.5052 7.4725C63.2702 6.9775 64.1627 6.73 65.1827 6.73C66.1277 6.73 66.9377 6.9775 67.6127 7.4725C68.0557 7.78069 68.4307 8.17235 68.7377 8.64749V2.5H71.2352V18.25H68.8502ZM68.3552 14.4925C68.6102 13.9525 68.7377 13.33 68.7377 12.625C68.7377 11.92 68.6102 11.2975 68.3552 10.7575C68.1152 10.2175 67.7702 9.7975 67.3202 9.4975C66.8852 9.1975 66.3752 9.0475 65.7902 9.0475C65.1902 9.0475 64.6577 9.1975 64.1927 9.4975C63.7277 9.7975 63.3602 10.2175 63.0902 10.7575C62.8352 11.2975 62.7002 11.92 62.6852 12.625C62.7002 13.33 62.8352 13.9525 63.0902 14.4925C63.3602 15.0325 63.7277 15.46 64.1927 15.775C64.6727 16.075 65.2127 16.225 65.8127 16.225C66.3827 16.225 66.8852 16.075 67.3202 15.775C67.7702 15.46 68.1152 15.0325 68.3552 14.4925Z" fill="#0E1011"/>
<path d="M55.8604 2.5V18.25H58.3804V2.5H55.8604Z" fill="#0E1011"/>
<path fill-rule="evenodd" clip-rule="evenodd" d="M48.4114 18.52C47.2864 18.52 46.2814 18.2725 45.3964 17.7775C44.5264 17.2675 43.8439 16.57 43.3489 15.685C42.8539 14.8 42.6064 13.78 42.6064 12.625C42.6064 11.47 42.8464 10.45 43.3264 9.56504C43.8214 8.68004 44.5039 7.99004 45.3739 7.49504C46.2439 6.98504 47.2414 6.73004 48.3664 6.73004C49.4914 6.73004 50.4889 6.98504 51.3589 7.49504C52.2291 7.99004 52.9039 8.68004 53.3839 9.56504C53.8789 10.45 54.1264 11.47 54.1264 12.625C54.1264 13.78 53.8864 14.8 53.4064 15.685C52.9264 16.57 52.2514 17.2675 51.3814 17.7775C50.5114 18.2725 49.5214 18.52 48.4114 18.52ZM48.4114 16.2025C49.0264 16.2025 49.5739 16.0525 50.0539 15.7525C50.5339 15.4375 50.9089 15.0175 51.1789 14.4925C51.4489 13.9525 51.5839 13.33 51.5839 12.625C51.5839 11.92 51.4416 11.305 51.1566 10.78C50.8864 10.24 50.5114 9.82004 50.0314 9.52004C49.5514 9.20504 48.9964 9.04754 48.3664 9.04754C47.7364 9.04754 47.1814 9.19754 46.7014 9.49754C46.2214 9.79754 45.8464 10.2175 45.5764 10.7575C45.3064 11.2975 45.1714 11.92 45.1714 12.625C45.1714 13.33 45.3064 13.9525 45.5764 14.4925C45.8614 15.0175 46.2439 15.4375 46.7239 15.7525C47.2189 16.0525 47.7814 16.2025 48.4114 16.2025Z" fill="#0E1011"/>
<path fill-rule="evenodd" clip-rule="evenodd" d="M32.9608 22.84C33.6058 22.975 34.3258 23.0425 35.1208 23.0425C36.2758 23.0425 37.2883 22.81 38.1583 22.345C39.0283 21.895 39.7033 21.22 40.1833 20.32C40.6633 19.435 40.9033 18.355 40.9033 17.08V7.00004H38.3833V8.81414C38.0473 8.25538 37.6273 7.80068 37.1233 7.45004C36.4483 6.97004 35.6533 6.73004 34.7383 6.73004C33.7183 6.73004 32.8258 6.97004 32.0608 7.45004C31.3108 7.93004 30.7183 8.59754 30.2833 9.45254C29.8633 10.3075 29.6533 11.32 29.6533 12.49C29.6533 13.585 29.8633 14.5525 30.2833 15.3925C30.7183 16.2175 31.3108 16.8625 32.0608 17.3275C32.8258 17.7925 33.7183 18.025 34.7383 18.025C35.6533 18.025 36.4483 17.8 37.1233 17.35C37.6273 17.0104 38.0473 16.5747 38.3833 16.0428V17.1475C38.3833 17.9875 38.2408 18.6775 37.9558 19.2175C37.6708 19.7575 37.2733 20.155 36.7633 20.41C36.2533 20.68 35.6758 20.815 35.0308 20.815C34.4308 20.815 33.8908 20.755 33.4108 20.635C32.9308 20.515 32.5108 20.3725 32.1508 20.2075C31.8058 20.0575 31.5283 19.93 31.3183 19.825L30.3508 21.85C30.5908 22.015 30.9283 22.1875 31.3633 22.3675C31.7983 22.5475 32.3308 22.705 32.9608 22.84ZM36.9208 15.4375C36.5008 15.7375 36.0058 15.8875 35.4358 15.8875C34.8358 15.8875 34.3033 15.7375 33.8383 15.4375C33.3733 15.1375 33.0058 14.7325 32.7358 14.2225C32.4808 13.6975 32.3533 13.0975 32.3533 12.4225C32.3533 11.7325 32.4808 11.1325 32.7358 10.6225C33.0058 10.0975 33.3658 9.69254 33.8158 9.40754C34.2808 9.10754 34.8133 8.95754 35.4133 8.95754C35.9833 8.95754 36.4858 9.10754 36.9208 9.40754C37.3558 9.69254 37.6933 10.0975 37.9333 10.6225C38.1733 11.1325 38.2933 11.7325 38.2933 12.4225C38.2933 13.0975 38.1733 13.6975 37.9333 14.2225C37.6933 14.7325 37.3558 15.1375 36.9208 15.4375Z" fill="#0E1011"/>
</svg>
