<svg width="94" height="25" viewBox="0 0 94 25" fill="none" xmlns="http://www.w3.org/2000/svg">
<path fill-rule="evenodd" clip-rule="evenodd" d="M9.04261 9.83626C8.67755 9.07776 8.5148 8.23777 8.57015 7.39782C8.6255 6.55786 8.89706 5.74649 9.35849 5.04245C9.81991 4.33841 10.4555 3.76564 11.2036 3.37971C11.9517 2.99379 12.7869 2.80783 13.628 2.83989C14.4693 2.87195 15.2878 3.12095 16.0044 3.5627C16.7209 4.00445 17.311 4.62395 17.7175 5.36106C18.124 6.09819 18.3331 6.92787 18.3244 7.76961C18.3156 8.61134 18.0894 9.43651 17.6676 10.165L13.7276 17L14.9089 19.0462L19.4439 11.1913C20.339 9.60135 20.5708 7.72254 20.089 5.96273C19.6073 4.20291 18.4509 2.70415 16.8708 1.79181C15.2906 0.879481 13.4145 0.627219 11.6495 1.0898C9.88459 1.55238 8.37332 2.69245 7.44386 4.26251C6.95024 5.10603 6.64286 6.04542 6.54239 7.01757C6.44191 7.98972 6.55067 8.97213 6.86136 9.89876C7.17732 9.85921 7.49542 9.83918 7.81386 9.83876L9.04261 9.83626ZM24.9364 13.8112C24.4466 12.9516 23.7765 12.2082 22.9721 11.6322C22.1676 11.0563 21.248 10.6615 20.2764 10.475C20.153 10.7698 20.0115 11.0566 19.8526 11.3337L19.2351 12.4025C20.0779 12.4543 20.8927 12.7238 21.6003 13.1845C22.3078 13.6452 22.8838 14.2817 23.2719 15.0315C23.66 15.7814 23.847 16.6191 23.8146 17.4629C23.7822 18.3065 23.5317 19.1275 23.0874 19.8454C22.643 20.5634 22.02 21.1538 21.2794 21.5591C20.5386 21.9644 19.7055 22.1706 18.8612 22.1577C18.017 22.1449 17.1905 21.9132 16.4625 21.4856C15.7345 21.0579 15.1299 20.4486 14.7076 19.7175L10.7739 12.905H8.4126L12.9351 20.74C13.0906 21.0074 13.263 21.2646 13.4514 21.51L13.4889 21.5588C14.133 22.3879 14.9591 23.0576 15.9036 23.5163C16.848 23.975 17.8853 24.2101 18.9351 24.2038C20.1513 24.2036 21.3459 23.8834 22.399 23.2752C23.4521 22.6671 24.3267 21.7925 24.9347 20.7394C25.5429 19.6861 25.863 18.4915 25.863 17.2754C25.8631 16.0592 25.543 14.8645 24.9351 13.8112H24.9364ZM10.0696 21.6065C10.8084 21.2215 11.4364 20.6539 11.8938 19.9575L12.4925 21C12.6583 21.2857 12.8428 21.5601 13.045 21.8213C12.3979 22.5739 11.5949 23.1768 10.6916 23.5881C9.7883 23.9995 8.80635 24.2096 7.8138 24.2038C6.89616 24.2161 5.98521 24.046 5.13384 23.7034C4.28248 23.3608 3.50766 22.8524 2.85439 22.2078C2.20111 21.5632 1.6824 20.7954 1.32835 19.9486C0.974307 19.102 0.791992 18.1934 0.791992 17.2756C0.791992 16.3579 0.974307 15.4494 1.32835 14.6026C1.6824 13.756 2.20111 12.988 2.85439 12.3435C3.50766 11.6989 4.28248 11.1906 5.13384 10.8479C5.98521 10.5053 6.89616 10.3352 7.8138 10.3475H16.875L15.6975 12.3925H7.8138C6.95679 12.3929 6.11496 12.6189 5.3729 13.0476C4.63083 13.4764 4.01466 14.0927 3.58626 14.8351C3.15788 15.5774 2.93236 16.4193 2.93236 17.2763C2.93237 18.1334 3.1579 18.9753 3.5863 19.7175C4.00272 20.4391 4.59689 21.042 5.31224 21.469C6.02759 21.896 6.84031 22.1328 7.67305 22.1569C8.50579 22.1809 9.33084 21.9914 10.0696 21.6065Z" fill="#0E1011"/>
<path d="M42.8955 20.2525L42.5355 18.5425L42.3555 18.475C42.2205 18.565 42.0405 18.6325 41.838 18.6325C41.478 18.6325 41.163 18.43 40.7805 18.0025L37.5405 14.2L41.9955 9.40747L41.928 9.24997H39.2955L34.638 14.38V5.28997L34.458 5.15497L32.1855 5.49247V20.5H34.638V16.765L35.7405 15.5725L38.913 19.3975C39.588 20.23 40.443 20.77 41.523 20.77C42.0855 20.77 42.513 20.635 42.8055 20.4325L42.8955 20.2525Z" fill="#0E1011"/>
<path fill-rule="evenodd" clip-rule="evenodd" d="M74.9305 8.97999C78.3505 8.97999 80.668 11.59 80.668 14.875C80.668 18.16 78.3505 20.77 74.9305 20.77C73.333 20.77 71.983 20.1175 71.0155 19.1275V20.5H68.8105V5.51499L71.1055 5.17749L71.263 5.28999V10.3975C72.208 9.51999 73.468 8.97999 74.9305 8.97999ZM74.638 18.6325C76.753 18.6325 78.148 16.9675 78.148 14.875C78.148 12.805 76.753 11.1175 74.638 11.1175C72.658 11.1175 71.083 12.4225 71.083 14.875C71.083 17.3275 72.658 18.6325 74.638 18.6325Z" fill="#0E1011"/>
<path fill-rule="evenodd" clip-rule="evenodd" d="M92.928 18.565L93.288 20.23L93.198 20.3875C92.883 20.6125 92.4105 20.77 91.848 20.77C90.8355 20.77 90.093 20.23 89.8005 19.3075C88.833 20.23 87.438 20.77 85.953 20.77C83.6355 20.77 81.498 19.4875 81.498 17.0575C81.498 14.56 83.748 13.4125 86.5155 13.4125C87.7305 13.4125 88.6755 13.6375 89.4855 13.93V13.3C89.4855 11.68 88.023 10.8925 86.4705 10.8925C85.188 10.8925 84.198 11.4325 83.4105 12.1975H83.2305L81.993 11.0275V10.8475C83.208 9.67748 84.7605 8.97998 86.6955 8.97998C89.1255 8.97998 91.893 10.06 91.893 13.3V17.6425C91.893 18.25 92.0055 18.6325 92.4105 18.6325C92.568 18.6325 92.6805 18.565 92.7705 18.4975L92.928 18.565ZM89.4855 16.4275V15.595C88.9005 15.37 87.933 15.0775 86.8305 15.0775C85.053 15.0775 83.9505 15.8425 83.9505 17.0575C83.9505 18.34 85.1655 18.97 86.448 18.97C88.0005 18.97 89.4855 18.0025 89.4855 16.4275Z" fill="#0E1011"/>
<path d="M66.5968 13.7275C66.5968 10.915 64.7743 8.98004 61.9168 8.98004C60.4093 8.98004 59.1268 9.52004 58.2493 10.3975C57.9568 9.49754 57.2593 8.98004 56.2243 8.98004C55.6393 8.98004 55.1443 9.13754 54.8293 9.36254L54.7393 9.52004L55.0993 11.185L55.2568 11.2525C55.3468 11.185 55.4593 11.1175 55.6168 11.1175C56.0443 11.1175 56.1343 11.5 56.1343 12.1075V20.5H58.6093V13.93C58.6093 12.22 59.7568 11.095 61.4443 11.095C63.1318 11.095 64.1443 12.22 64.1443 13.93V20.5H66.5968V13.7275Z" fill="#0E1011"/>
<path fill-rule="evenodd" clip-rule="evenodd" d="M54.1273 18.565L54.4873 20.23L54.3973 20.3875C54.0823 20.6125 53.6098 20.77 53.0473 20.77C52.0348 20.77 51.2923 20.23 50.9998 19.3075C50.0323 20.23 48.6373 20.77 47.1523 20.77C44.8348 20.77 42.6973 19.4875 42.6973 17.0575C42.6973 14.56 44.9473 13.4125 47.7148 13.4125C48.9298 13.4125 49.8748 13.6375 50.6848 13.93V13.3C50.6848 11.68 49.2223 10.8925 47.6698 10.8925C46.3873 10.8925 45.3973 11.4325 44.6098 12.1975H44.4298L43.1923 11.0275V10.8475C44.4073 9.67748 45.9598 8.97998 47.8948 8.97998C50.3248 8.97998 53.0923 10.06 53.0923 13.3V17.6425C53.0923 18.25 53.2048 18.6325 53.6098 18.6325C53.7673 18.6325 53.8798 18.565 53.9698 18.4975L54.1273 18.565ZM50.6848 16.4275V15.595C50.0998 15.37 49.1323 15.0775 48.0298 15.0775C46.2523 15.0775 45.1498 15.8425 45.1498 17.0575C45.1498 18.34 46.3648 18.97 47.6473 18.97C49.1998 18.97 50.6848 18.0025 50.6848 16.4275Z" fill="#0E1011"/>
</svg>
