<svg width="101" height="25" viewBox="0 0 101 25" fill="none" xmlns="http://www.w3.org/2000/svg">
<g clip-path="url(#clip0_7146_564)">
<path d="M97.2089 2.30322L100.25 22.6967H94.8112L94.5462 19.0312H92.6407L92.3252 22.6967H86.8232L89.5239 2.30322H97.2089ZM94.3949 15.4159C94.1256 13.1067 93.8564 10.2557 93.5872 6.8631C93.0487 10.7596 92.7122 13.6106 92.5776 15.4159H94.3949Z" fill="#0E1011"/>
<path d="M86.1603 2.30322V22.6967H80.8477V2.30322H86.1603Z" fill="#0E1011"/>
<path d="M78.9861 8.47548H74.052V6.96391C74.052 6.25852 73.9888 5.80925 73.8627 5.61611C73.7365 5.42296 73.5261 5.32639 73.2317 5.32639C72.912 5.32639 72.6681 5.45655 72.4998 5.71688C72.34 5.9772 72.26 6.37189 72.26 6.90094C72.26 7.58114 72.3526 8.09339 72.5376 8.43769C72.7143 8.78199 73.2148 9.19766 74.0393 9.68472C76.4033 11.0871 77.8923 12.2376 78.5065 13.1361C79.1206 14.0346 79.4277 15.4832 79.4277 17.4819C79.4277 18.9346 79.2552 20.0052 78.9103 20.6939C78.5738 21.3825 77.9176 21.962 76.9417 22.4322C75.9658 22.8941 74.8301 23.125 73.5346 23.125C72.1128 23.125 70.8971 22.8562 69.8876 22.3189C68.8865 21.7814 68.2303 21.097 67.919 20.2656C67.6077 19.4342 67.4521 18.2544 67.4521 16.7261V15.3909H72.3862V17.8724C72.3862 18.6365 72.4535 19.1278 72.5881 19.3461C72.7311 19.5645 72.9793 19.6736 73.3327 19.6736C73.686 19.6736 73.9468 19.535 74.1151 19.2579C74.2917 18.9808 74.3801 18.5694 74.3801 18.0235C74.3801 16.8226 74.216 16.0375 73.8878 15.668C73.5513 15.2985 72.7227 14.6812 71.402 13.8164C70.0811 12.943 69.2062 12.309 68.7771 11.9143C68.3481 11.5196 67.9906 10.9737 67.7045 10.2767C67.4268 9.57975 67.2881 8.68961 67.2881 7.60633C67.2881 6.04439 67.4857 4.90231 67.8812 4.18013C68.285 3.45794 68.9327 2.8953 69.8245 2.49222C70.7162 2.08074 71.7931 1.875 73.055 1.875C74.4347 1.875 75.6083 2.09754 76.5758 2.5426C77.5517 2.98767 78.1952 3.55031 78.5065 4.23051C78.8262 4.90231 78.9861 6.04859 78.9861 7.66931V8.47548Z" fill="#0E1011"/>
<path d="M65.9941 14.2446C65.9941 16.2936 65.9438 17.7464 65.8428 18.6029C65.7503 19.4511 65.4474 20.2279 64.9341 20.9333C64.4294 21.6386 63.7438 22.1803 62.8773 22.5581C62.0108 22.936 61.0011 23.125 59.8486 23.125C58.755 23.125 57.7706 22.9486 56.8958 22.596C56.0293 22.2349 55.331 21.6974 54.801 20.9836C54.271 20.2699 53.9555 19.493 53.8545 18.6532C53.7535 17.8135 53.7031 16.344 53.7031 14.2446V10.7554C53.7031 8.70641 53.7494 7.25782 53.8419 6.40968C53.9429 5.55313 54.2457 4.77215 54.7505 4.06676C55.2636 3.36136 55.9535 2.81973 56.82 2.44184C57.6865 2.06395 58.6961 1.875 59.8486 1.875C60.9423 1.875 61.9224 2.05555 62.7889 2.41664C63.6639 2.76934 64.3662 3.30259 64.8962 4.01638C65.4262 4.73016 65.7418 5.50694 65.8428 6.3467C65.9438 7.18645 65.9941 8.65602 65.9941 10.7554V14.2446ZM60.6815 7.54335C60.6815 6.59443 60.6268 5.9898 60.5175 5.72948C60.4165 5.46075 60.202 5.32639 59.8739 5.32639C59.5963 5.32639 59.3818 5.43556 59.2303 5.6539C59.0873 5.86384 59.0158 6.49365 59.0158 7.54335V17.0661C59.0158 18.2503 59.062 18.9808 59.1546 19.2579C59.2555 19.535 59.4826 19.6736 59.836 19.6736C60.1978 19.6736 60.4291 19.514 60.53 19.195C60.631 18.8759 60.6815 18.1159 60.6815 16.915V7.54335Z" fill="#0E1011"/>
<path d="M52.9016 2.30322V6.38444H49.7469V22.6967H44.4342V6.38444H41.292V2.30322H52.9016Z" fill="#0E1011"/>
<path d="M40.4022 2.30322V15.9324C40.4022 17.4776 40.3517 18.5651 40.2509 19.1949C40.1499 19.8163 39.8512 20.4587 39.3549 21.1221C38.8585 21.7772 38.2024 22.2768 37.3862 22.6211C36.5786 22.9569 35.6238 23.1249 34.5218 23.1249C33.3019 23.1249 32.225 22.9234 31.2913 22.5203C30.3574 22.1172 29.6591 21.5924 29.1965 20.9458C28.7338 20.2992 28.4604 19.6189 28.3762 18.9052C28.2921 18.1829 28.25 16.6714 28.25 14.3704V2.30322H33.5626V17.5952C33.5626 18.4853 33.609 19.0563 33.7015 19.3082C33.8025 19.5518 34.0001 19.6736 34.2946 19.6736C34.6311 19.6736 34.8456 19.5392 34.9381 19.2704C35.0391 18.9933 35.0896 18.3467 35.0896 17.3307V2.30322H40.4022Z" fill="#0E1011"/>
<path fill-rule="evenodd" clip-rule="evenodd" d="M12.75 18.75C16.2017 18.75 19 15.9517 19 12.5C19 9.04823 16.2017 6.25 12.75 6.25C9.29823 6.25 6.5 9.04823 6.5 12.5C6.5 15.9517 9.29823 18.75 12.75 18.75ZM12.75 25C19.6535 25 25.25 19.4035 25.25 12.5C25.25 5.59644 19.6535 0 12.75 0C5.84644 0 0.25 5.59644 0.25 12.5C0.25 19.4035 5.84644 25 12.75 25Z" fill="#0E1011"/>
</g>
<defs>
<clipPath id="clip0_7146_564">
<rect width="100.125" height="25" fill="white" transform="translate(0.25)"/>
</clipPath>
</defs>
</svg>
